<svg width="1600" height="930" viewBox="0 0 1600 930" fill="none" xmlns="http://www.w3.org/2000/svg">
  <rect width="1600" height="930" fill="#11151C"/>
  <rect x="40" y="18" width="1520" height="896" rx="14" fill="#131922" stroke="#3A4250" stroke-width="2"/>
  <path d="M40 113H1560" stroke="#343C49" stroke-width="2"/>
  <g fill="#EEF2F6" font-family="system-ui, -apple-system, BlinkMacSystemFont, 'Segoe UI', sans-serif" font-weight="700">
    <text x="82" y="76" font-size="31">Repositories</text>
    <text x="364" y="76" font-size="31" fill="#9DA4B0">Organizations</text>
  </g>
  <g>
    <rect x="270" y="49" width="42" height="32" rx="16" fill="#232A35"/>
    <text x="282" y="73" fill="#EEF2F6" font-family="system-ui, sans-serif" font-size="24" font-weight="700">5</text>
    <rect x="562" y="49" width="42" height="32" rx="16" fill="#232A35"/>
    <text x="574" y="73" fill="#EEF2F6" font-family="system-ui, sans-serif" font-size="24" font-weight="700">0</text>
  </g>
  <g>
    <rect x="1238" y="34" width="316" height="60" rx="12" fill="#232A35" stroke="#4A5260" stroke-width="2"/>
    <path d="M1279 64H1307" stroke="#EEF2F6" stroke-width="5" stroke-linecap="round"/>
    <path d="M1293 50V78" stroke="#EEF2F6" stroke-width="5" stroke-linecap="round"/>
    <text x="1312" y="76" fill="#EEF2F6" font-family="system-ui, sans-serif" font-size="28" font-weight="700">Add permissions</text>
  </g>
  <g font-family="system-ui, sans-serif">
    <g transform="translate(0 0)">
      <path d="M40 244H1560" stroke="#343C49" stroke-width="2"/>
      <text x="88" y="146" fill="#EEF2F6" font-size="28" font-weight="700">Actions</text>
      <text x="88" y="192" fill="#9DA4B0" font-size="26" font-weight="500">Workflows, workflow runs and artifacts.</text>
      <text x="544" y="192" fill="#4E96FF" font-size="26" font-weight="500">Learn more.</text>
      <rect x="1187" y="136" width="284" height="54" rx="12" fill="#2A313D" stroke="#4A5260" stroke-width="2"/>
      <text x="1203" y="171" fill="#9DA4B0" font-size="25" font-weight="600">Access:</text>
      <text x="1332" y="171" fill="#EEF2F6" font-size="25" font-weight="700">Read-only</text>
      <path d="M1436 159L1444 167L1452 159" stroke="#9DA4B0" stroke-width="4" stroke-linecap="round" stroke-linejoin="round"/>
      <path d="M1495 149L1511 165M1511 149L1495 165" stroke="#A7AEB9" stroke-width="4" stroke-linecap="round"/>
    </g>
    <g transform="translate(0 163)">
      <path d="M40 244H1560" stroke="#343C49" stroke-width="2"/>
      <text x="88" y="146" fill="#EEF2F6" font-size="28" font-weight="700">Commit statuses</text>
      <text x="88" y="192" fill="#9DA4B0" font-size="26" font-weight="500">Commit statuses.</text>
      <text x="294" y="192" fill="#4E96FF" font-size="26" font-weight="500">Learn more.</text>
      <rect x="1187" y="136" width="284" height="54" rx="12" fill="#2A313D" stroke="#4A5260" stroke-width="2"/>
      <text x="1203" y="171" fill="#9DA4B0" font-size="25" font-weight="600">Access:</text>
      <text x="1332" y="171" fill="#EEF2F6" font-size="25" font-weight="700">Read-only</text>
      <path d="M1436 159L1444 167L1452 159" stroke="#9DA4B0" stroke-width="4" stroke-linecap="round" stroke-linejoin="round"/>
      <path d="M1495 149L1511 165M1511 149L1495 165" stroke="#A7AEB9" stroke-width="4" stroke-linecap="round"/>
    </g>
    <g transform="translate(0 326)">
      <path d="M40 244H1560" stroke="#343C49" stroke-width="2"/>
      <text x="88" y="146" fill="#EEF2F6" font-size="28" font-weight="700">Contents</text>
      <text x="88" y="192" fill="#9DA4B0" font-size="26" font-weight="500">Repository contents, commits, branches, downloads, releases, and merges.</text>
      <text x="952" y="192" fill="#4E96FF" font-size="26" font-weight="500">Learn more.</text>
      <rect x="1132" y="136" width="339" height="54" rx="12" fill="#2A313D" stroke="#4A5260" stroke-width="2"/>
      <text x="1148" y="171" fill="#9DA4B0" font-size="25" font-weight="600">Access:</text>
      <text x="1277" y="171" fill="#EEF2F6" font-size="25" font-weight="700">Read and write</text>
      <path d="M1436 159L1444 167L1452 159" stroke="#9DA4B0" stroke-width="4" stroke-linecap="round" stroke-linejoin="round"/>
      <path d="M1495 149L1511 165M1511 149L1495 165" stroke="#A7AEB9" stroke-width="4" stroke-linecap="round"/>
    </g>
    <g transform="translate(0 489)">
      <path d="M40 244H1560" stroke="#343C49" stroke-width="2"/>
      <text x="88" y="146" fill="#EEF2F6" font-size="28" font-weight="700">Metadata</text>
      <rect x="223" y="120" width="129" height="40" rx="20" stroke="#D39A1A" stroke-width="3"/>
      <text x="236" y="148" fill="#D39A1A" font-size="24" font-weight="700">Required</text>
      <text x="88" y="192" fill="#9DA4B0" font-size="26" font-weight="500">Search repositories, list collaborators, and access repository metadata.</text>
      <text x="903" y="192" fill="#4E96FF" font-size="26" font-weight="500">Learn more.</text>
      <rect x="1180" y="136" width="291" height="54" rx="12" fill="#2A313D"/>
      <text x="1196" y="171" fill="#9DA4B0" font-size="25" font-weight="600">Access:</text>
      <text x="1325" y="171" fill="#EEF2F6" font-size="25" font-weight="700">Read-only</text>
      <path d="M1436 159L1444 167L1452 159" stroke="#9DA4B0" stroke-width="4" stroke-linecap="round" stroke-linejoin="round"/>
      <path d="M1496 150L1507 145L1518 150V160C1518 169 1510 176 1507 177C1504 176 1496 169 1496 160V150Z" stroke="#A7AEB9" stroke-width="4" stroke-linejoin="round"/>
    </g>
    <g transform="translate(0 652)">
      <text x="88" y="146" fill="#EEF2F6" font-size="28" font-weight="700">Pull requests</text>
      <text x="88" y="192" fill="#9DA4B0" font-size="26" font-weight="500">Pull requests and related comments, assignees, labels, milestones, and merges.</text>
      <text x="88" y="244" fill="#4E96FF" font-size="26" font-weight="500">Learn more.</text>
      <rect x="1131" y="148" width="340" height="54" rx="12" fill="#2A313D" stroke="#4A5260" stroke-width="2"/>
      <text x="1147" y="183" fill="#9DA4B0" font-size="25" font-weight="600">Access:</text>
      <text x="1276" y="183" fill="#EEF2F6" font-size="25" font-weight="700">Read and write</text>
      <path d="M1436 171L1444 179L1452 171" stroke="#9DA4B0" stroke-width="4" stroke-linecap="round" stroke-linejoin="round"/>
      <path d="M1495 161L1511 177M1511 161L1495 177" stroke="#A7AEB9" stroke-width="4" stroke-linecap="round"/>
    </g>
  </g>
</svg>
